<?xml version="1.0" encoding="UTF-8"?>
<svg xmlns="http://www.w3.org/2000/svg" xmlns:xlink="http://www.w3.org/1999/xlink" viewBox="0 0 20 20" width="30px" height="30px">
<g id="surface190913699">
<path style=" stroke:none;fill-rule:nonzero;fill:rgb(100%,100%,100%);fill-opacity:1;" d="M 10 2 C 5.582031 2 2 5.582031 2 10 C 2 13.75 4.582031 16.886719 8.0625 17.753906 C 8.023438 17.644531 8 17.519531 8 17.363281 L 8 15.996094 C 7.675781 15.996094 7.132812 15.996094 6.996094 15.996094 C 6.449219 15.996094 5.960938 15.761719 5.726562 15.324219 C 5.460938 14.839844 5.417969 14.09375 4.769531 13.640625 C 4.574219 13.488281 4.722656 13.316406 4.945312 13.339844 C 5.355469 13.457031 5.695312 13.738281 6.015625 14.15625 C 6.332031 14.574219 6.484375 14.667969 7.078125 14.667969 C 7.367188 14.667969 7.796875 14.652344 8.207031 14.585938 C 8.425781 14.03125 8.800781 13.519531 9.265625 13.277344 C 6.601562 13.003906 5.328125 11.679688 5.328125 9.878906 C 5.328125 9.105469 5.660156 8.355469 6.21875 7.726562 C 6.035156 7.097656 5.804688 5.820312 6.289062 5.332031 C 7.488281 5.332031 8.214844 6.109375 8.386719 6.320312 C 8.984375 6.117188 9.640625 6 10.328125 6 C 11.019531 6 11.679688 6.117188 12.277344 6.320312 C 12.449219 6.113281 13.175781 5.332031 14.375 5.332031 C 14.863281 5.820312 14.628906 7.105469 14.445312 7.730469 C 15.003906 8.359375 15.328125 9.105469 15.328125 9.878906 C 15.328125 11.679688 14.0625 13.003906 11.402344 13.277344 C 12.132812 13.660156 12.667969 14.734375 12.667969 15.542969 L 12.667969 17.363281 C 12.667969 17.433594 12.652344 17.484375 12.644531 17.542969 C 15.761719 16.449219 18 13.492188 18 10 C 18 5.582031 14.417969 2 10 2 Z M 10 2 "/>
</g>
</svg>
