<svg width="44" height="31" viewBox="0 0 44 31" fill="none" xmlns="http://www.w3.org/2000/svg">
<path d="M11.41 22V7.25H16.53C17.8833 7.25 18.9133 7.57 19.62 8.21C20.3267 8.85 20.68 9.82667 20.68 11.14C20.68 11.9267 20.53 12.5967 20.23 13.15C19.9367 13.6967 19.58 14.12 19.16 14.42C18.7467 14.72 18.3633 14.89 18.01 14.93C18.37 14.9567 18.7233 15.0567 19.07 15.23C19.4233 15.3967 19.7167 15.6567 19.95 16.01C20.1833 16.3633 20.3 16.8367 20.3 17.43C20.3 17.9767 20.3 18.5367 20.3 19.11C20.3 19.6767 20.3 20.2367 20.3 20.79C20.3 21.0767 20.3233 21.3333 20.37 21.56C20.4167 21.78 20.47 21.9267 20.53 22H18.81C18.7633 21.9133 18.7167 21.7633 18.67 21.55C18.6233 21.3367 18.6 21.0833 18.6 20.79C18.6 20.2767 18.6 19.7533 18.6 19.22C18.6 18.6867 18.6 18.16 18.6 17.64C18.6 16.9867 18.3933 16.5 17.98 16.18C17.5667 15.86 16.9833 15.7 16.23 15.7H12.6L13.08 15.05V22H11.41ZM13.08 14.91L12.6 14.2H16.25C16.7433 14.2 17.19 14.08 17.59 13.84C17.9967 13.5933 18.32 13.2533 18.56 12.82C18.8067 12.38 18.93 11.8667 18.93 11.28C18.93 10.3667 18.69 9.71667 18.21 9.33C17.73 8.94333 17.0367 8.75 16.13 8.75H12.56L13.08 8.01V14.91ZM28.8045 7.25C29.7179 7.25 30.4912 7.37667 31.1245 7.63C31.7645 7.87667 32.2512 8.26 32.5845 8.78C32.9245 9.3 33.0945 9.96 33.0945 10.76C33.0945 11.52 32.9379 12.1567 32.6245 12.67C32.3179 13.1767 31.9212 13.5633 31.4345 13.83C30.9545 14.09 30.4545 14.2333 29.9345 14.26C30.5012 14.2733 31.0512 14.4033 31.5845 14.65C32.1179 14.89 32.5545 15.2767 32.8945 15.81C33.2412 16.3367 33.4145 17.04 33.4145 17.92C33.4145 18.78 33.2412 19.5167 32.8945 20.13C32.5545 20.7367 32.0379 21.2 31.3445 21.52C30.6512 21.84 29.7779 22 28.7245 22H23.9045V7.25H28.8045ZM25.5545 14.15L24.9745 13.57H28.0045C29.0712 13.57 29.9012 13.3567 30.4945 12.93C31.0879 12.4967 31.3845 11.86 31.3845 11.02C31.3845 10.46 31.2612 10.0167 31.0145 9.69C30.7679 9.35667 30.4179 9.11667 29.9645 8.97C29.5179 8.82333 28.9945 8.75 28.3945 8.75H24.7845L25.5545 7.78V14.15ZM28.3945 20.5C29.4079 20.5 30.2079 20.2767 30.7945 19.83C31.3812 19.3833 31.6745 18.7167 31.6745 17.83C31.6745 17.29 31.5779 16.8433 31.3845 16.49C31.1912 16.13 30.9279 15.8467 30.5945 15.64C30.2612 15.4333 29.8779 15.2867 29.4445 15.2C29.0179 15.1067 28.5679 15.06 28.0945 15.06H24.9745L25.5545 14.48V21.47L24.7845 20.5H28.3945Z" fill="white"/>
<path d="M41.228 16.174C40.524 16.2473 39.9887 16.46 39.622 16.812C39.2407 17.164 39.05 17.626 39.05 18.198C39.05 18.726 39.1087 19.694 39.226 21.102C39.358 22.422 39.424 23.478 39.424 24.27C39.424 25.3113 39.1233 26.1253 38.522 26.712C37.906 27.2987 37.0993 27.592 36.102 27.592H34.628V25.414H35.596C36.0653 25.414 36.4173 25.304 36.652 25.084C36.872 24.8787 36.982 24.5413 36.982 24.072C36.982 23.72 36.96 23.2507 36.916 22.664C36.872 22.0773 36.8427 21.6593 36.828 21.41C36.696 20.0607 36.63 18.9607 36.63 18.11C36.63 17.362 36.8207 16.7387 37.202 16.24C37.5687 15.7413 38.1407 15.4113 38.918 15.25V15.206C38.1407 15.0447 37.5687 14.7147 37.202 14.216C36.8207 13.7173 36.63 13.094 36.63 12.346C36.63 11.4953 36.696 10.3953 36.828 9.046C36.8427 8.79667 36.872 8.37867 36.916 7.792C36.96 7.20533 36.982 6.736 36.982 6.384C36.982 5.91467 36.872 5.57733 36.652 5.372C36.4173 5.152 36.0653 5.042 35.596 5.042H34.628V2.864H36.102C37.0993 2.864 37.906 3.15733 38.522 3.744C39.1233 4.33067 39.424 5.14467 39.424 6.186C39.424 6.978 39.358 8.034 39.226 9.354C39.1087 10.762 39.05 11.73 39.05 12.258C39.05 12.83 39.2407 13.292 39.622 13.644C39.9887 13.996 40.524 14.2087 41.228 14.282V16.174Z" fill="url(#paint0_linear_4_2)"/>
<path d="M2.772 14.826C3.476 14.7527 4.01133 14.54 4.378 14.188C4.75933 13.836 4.95 13.374 4.95 12.802C4.95 12.274 4.89133 11.306 4.774 9.898C4.642 8.578 4.576 7.522 4.576 6.73C4.576 5.68867 4.87667 4.87467 5.478 4.288C6.094 3.70133 6.90067 3.408 7.898 3.408H9.372V5.586H8.404C7.93467 5.586 7.58267 5.696 7.348 5.916C7.128 6.12133 7.018 6.45867 7.018 6.928C7.018 7.28 7.04 7.74933 7.084 8.336C7.128 8.92267 7.15733 9.34067 7.172 9.59C7.304 10.9393 7.37 12.0393 7.37 12.89C7.37 13.638 7.17933 14.2613 6.798 14.76C6.43133 15.2587 5.85933 15.5887 5.082 15.75V15.794C5.85933 15.9553 6.43133 16.2853 6.798 16.784C7.17933 17.2827 7.37 17.906 7.37 18.654C7.37 19.5047 7.304 20.6047 7.172 21.954C7.15733 22.2033 7.128 22.6213 7.084 23.208C7.04 23.7947 7.018 24.264 7.018 24.616C7.018 25.0853 7.128 25.4227 7.348 25.628C7.58267 25.848 7.93467 25.958 8.404 25.958H9.372V28.136H7.898C6.90067 28.136 6.094 27.8427 5.478 27.256C4.87667 26.6693 4.576 25.8553 4.576 24.814C4.576 24.022 4.642 22.966 4.774 21.646C4.89133 20.238 4.95 19.27 4.95 18.742C4.95 18.17 4.75933 17.708 4.378 17.356C4.01133 17.004 3.476 16.7913 2.772 16.718V14.826Z" fill="url(#paint1_linear_4_2)"/>
<defs>
<linearGradient id="paint0_linear_4_2" x1="39" y1="31" x2="39" y2="2" gradientUnits="userSpaceOnUse">
<stop stop-color="#020024"/>
<stop offset="0.9999" stop-color="#0167FF"/>
<stop offset="1" stop-color="#0500FF" stop-opacity="0"/>
</linearGradient>
<linearGradient id="paint1_linear_4_2" x1="5" y1="0" x2="5" y2="29" gradientUnits="userSpaceOnUse">
<stop stop-color="#0500FF" stop-opacity="0"/>
<stop offset="0.0001" stop-color="#0167FF"/>
<stop offset="1" stop-color="#020024"/>
</linearGradient>
</defs>
</svg>
